<?xml version="1.0" encoding="UTF-8"?>
<svg width="24px" height="24px" viewBox="0 0 24 24" version="1.1" xmlns="http://www.w3.org/2000/svg" xmlns:xlink="http://www.w3.org/1999/xlink">
    <title>@0.5xsetting (2) copy 6</title>
    <defs>
        <filter color-interpolation-filters="auto" id="filter-1">
            <feColorMatrix in="SourceGraphic" type="matrix" values="0 0 0 0 0.089477 0 0 0 0 0.090891 0 0 0 0 0.102563 0 0 0 1.000000 0"></feColorMatrix>
        </filter>
    </defs>
    <g id="Page-1" stroke="none" stroke-width="1" fill="none" fill-rule="evenodd">
        <g id="Settings" transform="translate(-329.000000, -852.000000)">
            <g id="setting-(2)-copy-6" transform="translate(23.000000, 840.000000)" filter="url(#filter-1)">
                <g transform="translate(318.000000, 24.000000) scale(1, -1) translate(-318.000000, -24.000000) translate(306.000000, 12.000000)">
                    <path d="M22.5328125,9.59249853 L21.384375,9.59249853 C21.075,9.59249853 20.7140625,9.31119359 20.5921875,8.97831608 C20.484375,8.66888064 20.353125,8.36413362 20.2078125,8.06407501 C20.053125,7.74995116 20.109375,7.29517484 20.3296875,7.0748193 L21.15,6.25434655 C21.721875,5.68235984 21.721875,4.74936511 21.15,4.17737839 L19.8234375,2.85055675 C19.546875,2.57394022 19.1765625,2.4192225 18.7828125,2.4192225 C18.3890625,2.4192225 18.01875,2.56925181 17.7421875,2.85055675 L16.9265625,3.6710295 C16.7953125,3.80230514 16.575,3.8820082 16.340625,3.8820082 C16.1953125,3.8820082 16.0546875,3.85387771 15.9375,3.79292831 C15.6421875,3.64758742 15.3328125,3.5210002 15.0234375,3.40847822 C14.690625,3.29126783 14.409375,2.9255714 14.409375,2.61613596 L14.409375,1.46747412 C14.409375,0.661066615 13.7484375,0 12.9375,0 L11.0625,0 C10.2515625,0 9.5953125,0.661066615 9.5953125,1.46747412 L9.5953125,2.61613596 C9.5953125,2.9255714 9.3140625,3.29126783 8.98125,3.40847822 C8.671875,3.51631178 8.3625,3.64758742 8.0671875,3.78823989 C7.95,3.84450088 7.809375,3.87731979 7.6640625,3.87731979 C7.4296875,3.87731979 7.209375,3.79761672 7.078125,3.66634108 L6.2625,2.85055675 C5.9859375,2.57394022 5.615625,2.4192225 5.221875,2.4192225 C4.828125,2.4192225 4.4578125,2.57394022 4.18125,2.85055675 L2.85,4.18206681 C2.5734375,4.45868334 2.41875,4.82906818 2.41875,5.2228951 C2.41875,5.61672202 2.5734375,5.98241844 2.85,6.25903497 L3.6703125,7.07950772 C3.890625,7.29986325 3.946875,7.75463958 3.796875,8.06876343 C3.6515625,8.36882204 3.525,8.67356906 3.4125,8.98300449 C3.2953125,9.31588201 2.9296875,9.59718695 2.6203125,9.59718695 L1.471875,9.59718695 C0.6609375,9.59249853 0,10.2535651 0,11.0646611 L0,12.9400273 C0,13.7511233 0.6609375,14.4075015 1.4671875,14.4075015 L2.615625,14.4075015 C2.925,14.4075015 3.290625,14.6888064 3.4078125,15.0216839 C3.515625,15.3311194 3.646875,15.6358664 3.7921875,15.935925 C3.946875,16.2500488 3.8859375,16.7048252 3.665625,16.9251807 L2.8453125,17.7456534 C2.2734375,18.3176402 2.2734375,19.2506349 2.8453125,19.8226216 L4.1765625,21.1541317 C4.453125,21.4307482 4.8234375,21.5854659 5.2171875,21.5854659 C5.6109375,21.5854659 5.9765625,21.4307482 6.2578125,21.1541317 L7.078125,20.3336589 C7.209375,20.2023833 7.4296875,20.1226802 7.6640625,20.1226802 C7.809375,20.1226802 7.95,20.1508107 8.0671875,20.2117601 C8.3625,20.357101 8.671875,20.4836882 8.98125,20.5915218 C9.3140625,20.7087322 9.5953125,21.0744286 9.5953125,21.383864 L9.5953125,22.5325259 C9.5953125,23.3436218 10.25625,24 11.0625,24 L12.9375,24 C13.7484375,24 14.409375,23.3389334 14.409375,22.5325259 L14.409375,21.383864 C14.409375,21.0744286 14.690625,20.7087322 15.0234375,20.5915218 C15.3328125,20.4836882 15.6421875,20.3524126 15.9375,20.2117601 C16.05,20.1554991 16.1953125,20.1226802 16.340625,20.1226802 C16.575,20.1226802 16.7953125,20.2023833 16.9265625,20.3336589 L17.7421875,21.1541317 C18.01875,21.4307482 18.3890625,21.5854659 18.7828125,21.5854659 C19.1765625,21.5854659 19.5421875,21.4307482 19.8234375,21.1541317 L21.15,19.8226216 C21.721875,19.2506349 21.721875,18.3176402 21.15,17.7456534 L20.334375,16.9298691 C20.1140625,16.7095136 20.0578125,16.2547373 20.2125,15.9406134 C20.3578125,15.6452432 20.484375,15.3358078 20.5921875,15.0263723 C20.709375,14.6934948 21.075,14.4121899 21.384375,14.4121899 L22.5328125,14.4121899 C23.34375,14.4121899 24,13.7511233 24,12.9447158 L24,11.0646611 C24,10.2535651 23.3390625,9.59249853 22.5328125,9.59249853 Z M12,16.3109982 C9.6234375,16.3109982 7.6921875,14.379371 7.6921875,12.0023442 C7.6921875,9.63000586 9.6234375,7.69369017 12,7.69369017 C14.3765625,7.69369017 16.3078125,9.62531744 16.3078125,12.0023442 C16.3078125,14.3746826 14.3765625,16.3109982 12,16.3109982 Z" id="Shape" fill="#231F20" fill-rule="nonzero"></path>
                </g>
            </g>
        </g>
    </g>
</svg>